<?xml version="1.0" standalone="no"?><!DOCTYPE svg PUBLIC "-//W3C//DTD SVG 1.1//EN" "http://www.w3.org/Graphics/SVG/1.1/DTD/svg11.dtd"><svg t="1778837480146" class="icon" viewBox="0 0 1024 1024" version="1.1" xmlns="http://www.w3.org/2000/svg" p-id="12114" xmlns:xlink="http://www.w3.org/1999/xlink" width="200" height="200"><path d="M511.3 958.4c-60.2 0-118.7-11.8-173.7-35.1-53.1-22.5-100.9-54.7-141.8-95.6-41-41-73.2-88.7-95.6-141.8-23.3-55-35.1-113.5-35.1-173.7s11.8-118.7 35.1-173.7c22.5-53.1 54.6-100.9 95.6-141.8 41-41 88.7-73.2 141.8-95.6C392.7 77.8 451.1 66 511.3 66S630 77.8 685 101.1c53.1 22.5 100.9 54.7 141.8 95.6 41 41 73.2 88.7 95.6 141.8 23.3 55 35.1 113.5 35.1 173.7s-11.8 118.7-35.1 173.7C900 739 867.8 786.8 826.9 827.7c-41 41-88.7 73.2-141.8 95.6-55.1 23.3-113.5 35.1-173.8 35.1z m0-875.4C274.7 83 82.1 275.5 82.1 512.2s192.5 429.2 429.2 429.2 429.2-192.5 429.2-429.2S748 83 511.3 83z" fill="#63CCCE" p-id="12115"></path><path d="M368.5 246.8l95.9 95.9h93.8l95.9-95.9c11.6-11.6 30.3-11.6 41.8 0 11.6 11.6 11.6 30.3 0 41.8l-54.1 54h61.7c27.5 0 53.8 10.9 73.2 30.3 19.4 19.4 30.3 45.7 30.3 73.2v236.6c0 27.5-10.9 53.8-30.3 73.2-19.4 19.4-45.7 30.3-73.2 30.3H319.1c-27.5 0-53.8-10.9-73.2-30.3-19.4-19.4-30.3-45.7-30.3-73.2V446.2c0-57.2 46.3-103.5 103.5-103.5h61.7l-54.1-54.1c-11.6-11.6-11.6-30.3 0-41.9 11.5-11.5 30.3-11.5 41.8 0.1z m335 155.1H319.1c-22.9 0-42 17.4-44.2 40.1l-0.2 4.2v236.6c0 22.9 17.4 42 40.1 44.2l4.2 0.2h384.5c22.8 0 42-17.3 44.2-40.1l0.2-4.3V446.2c0-24.5-19.9-44.3-44.4-44.3zM393 490.6c7.8 0 15.4 3.1 20.9 8.7 5.5 5.5 8.7 13.1 8.7 20.9v59.1c0 16.3-13.2 29.6-29.6 29.6-16.3 0-29.6-13.2-29.6-29.6v-59.1c0-7.8 3.1-15.4 8.7-20.9 5.5-5.6 13.1-8.7 20.9-8.7z m236.6 0c7.8 0 15.4 3.1 20.9 8.7 5.5 5.5 8.7 13.1 8.7 20.9v59.1c0 16.3-13.2 29.6-29.6 29.6-16.3 0-29.6-13.2-29.6-29.6v-59.1c0-7.8 3.1-15.4 8.7-20.9 5.5-5.6 13.1-8.7 20.9-8.7z m0 0" fill="#63CCCE" p-id="12116"></path></svg>