<?xml version="1.0" standalone="no"?><!DOCTYPE svg PUBLIC "-//W3C//DTD SVG 1.1//EN" "http://www.w3.org/Graphics/SVG/1.1/DTD/svg11.dtd"><svg t="1778837395963" class="icon" viewBox="0 0 1024 1024" version="1.1" xmlns="http://www.w3.org/2000/svg" p-id="10116" xmlns:xlink="http://www.w3.org/1999/xlink" width="200" height="200"><path d="M230.10304 806.016V380.70272l146.23232 13.8752 23.90528-131.54816h-4.25472l-174.99136 0.09728c-7.93088 0-15.84128 0.08704-23.7568-0.128-14.56128-0.384-25.74336-8.61184-30.47936-22.20032-0.24064-0.6144-0.17408-1.3568-0.29696-2.46784 3.00544-0.1792 5.8112-0.54272 8.63232-0.54272 117.14048-0.0512 234.28608-0.1024 351.43168-0.11264 19.85024 0 39.68512 0.03072 59.53536 0.11264 14.55104 0.0512 29.09184 0.01536 43.63776 0.34816 18.18112 0.36352 33.67424-6.15936 47.2832-17.78176 2.83136-2.43712 5.6576-4.86912 8.23808-7.552 2.7136-2.84672 5.83168-2.87744 8.79616-1.19296 26.10688 14.8992 52.16256 29.93152 78.37184 45.0304-0.62464 3.5584-1.57184 6.02624-6.15424 5.8624-6.57408-0.21504-13.21472 0.57856-19.79904 0.57856-57.84576 0.04608-115.712 0.04608-173.55264 0.04608-11.65312 0-23.32672 0.13312-34.97984-0.16384-10.17856-0.26624-17.26464 3.97312-22.43072 12.66688-13.16352 22.20032-26.58816 44.15488-39.95136 66.24256-9.07264 14.93504-18.25792 29.86496-27.38176 44.8-0.66048 1.09056-1.24416 2.2528-2.11968 3.84 1.57184 0.06656 2.68288 0.21504 3.79392 0.21504 47.39584 0.01536 94.7968-0.01536 142.17728 0.0512 2.5856 0 3.72736-0.74752 4.5056-3.23072 2.87744-9.10336 2.92864-8.79104 12.40064-7.38304 13.89056 2.06848 27.81696 3.69152 41.70752 5.54496 13.75744 1.80736 27.51488 3.6096 41.28256 5.43232 4.86912 0.64512 9.7536 1.25952 15.03744 1.92 0 4.57216 0.128 9.10848-0.11264 13.60896-0.0512 0.7936-1.6896 1.72032-2.7648 2.10432-26.2912 8.72448-52.62848 17.36704-78.95552 26.04032-8.16128 2.65216-16.32256 5.34528-24.51456 8.04864-0.76288 0.2304-1.5616 0.39936-2.6368 0.69632l-1.37728-24.56576h-4.28544c-82.1504 0-164.31616 0.01536-246.44608-0.11776-3.82464-0.01536-4.48512 1.1776-4.48512 4.6848 0.08192 103.78752 0.06656 207.57504 0.06656 311.34208v4.12672h255.50336c0.08192-0.74752 0.26624-1.54112 0.2816-2.33472 0.1024-15.5136 0.26624-31.0272 0.26624-46.52544a686.08 686.08 0 0 0-0.43008-28.48768c-0.34816-9.25696 4.16768-14.91456 12.3136-18.70336a4349.4912 4349.4912 0 0 0 65.64352-30.87872c10.98752-5.30944 21.65248-11.20256 32.6656-16.98304v210.94912H597.0944v-33.5872c0-4.95104 0-4.95104-5.13024-4.95104H341.20704v38.50752h-111.104z" fill="#2022D3" p-id="10117"></path><path d="M849.47456 436.92544c-10.48064 29.76768-29.47072 51.00544-58.69056 61.93664-19.99872 7.5008-40.52992 13.58848-60.8256 20.34688-2.49856 0.80896-4.9664 1.65376-7.4496 2.51392-0.14848 0.06656-0.21504 0.37888-0.48128 0.96256 17.12128 2.97984 34.13504 5.92384 51.73248 8.97024-50.8416 45.94176-109.91104 63.39072-177.09568 53.77536-1.32096 3.19488-0.09728 4.59776 2.46784 5.82656 12.06784 5.79584 24.06912 11.75552 36.81792 18.01216-2.85184 1.6896-5.13536 3.05152-7.4496 4.38784-22.79936 12.89728-46.95552 22.14912-72.81664 26.60352-18.53952 3.24608-37.27872 2.69824-56.01792 2.61632-10.51648-0.03584-21.02272 0.7936-31.488 1.85344-5.09952 0.53248-9.25696 3.712-12.84608 7.43424-19.71712 20.56192-39.48544 41.06752-59.20256 61.59872-0.512 0.54272-0.87552 1.18784-1.3056 1.75616l-0.7936-0.54272c3.16416-6.44096 6.24128-12.96384 9.48736-19.3536 17.11616-33.72544 37.46304-65.32608 61.55264-94.49984a454.15424 454.15424 0 0 1 65.19808-64.59392c27.99616-22.59968 58.0608-42.0352 90.58816-57.51296a435.2 435.2 0 0 1 99.3792-33.28c19.10272-3.9424 38.4256-6.95296 57.76384-9.27232 20.29568-2.45248 40.76032-2.45248 61.15328-0.91136 3.33312 0.2304 6.64576 0.87552 10.32192 1.37216" fill="#2022D3" p-id="10118"></path><path d="M507.97056 10.52672c274.44736 0 497.72544 223.27808 497.72544 497.73056s-223.27808 497.73056-497.72544 497.73056C233.51808 1005.98272 10.24 782.70464 10.24 508.25728S233.51808 10.52672 507.97056 10.52672m0-10.24C227.42016 0.28672 0 227.70688 0 508.25728c0 280.54016 227.42016 507.97056 507.97056 507.97056 280.54016 0 507.96544-227.4304 507.96544-507.97056 0-280.5504-227.42528-507.97056-507.96544-507.97056z" fill="#D8D8D8" p-id="10119"></path></svg>