<?xml version="1.0" standalone="no"?><!DOCTYPE svg PUBLIC "-//W3C//DTD SVG 1.1//EN" "http://www.w3.org/Graphics/SVG/1.1/DTD/svg11.dtd"><svg t="1778837754917" class="icon" viewBox="0 0 1108 1024" version="1.1" xmlns="http://www.w3.org/2000/svg" p-id="19107" xmlns:xlink="http://www.w3.org/1999/xlink" width="216.40625" height="200"><path d="M406.099231 288.705265a271.04477 271.04477 0 0 0 21.292796 110.346785 267.412469 267.412469 0 0 0 64.442021 92.06003 271.671028 271.671028 0 0 0 41.458327 31.688691 244.178271 244.178271 0 0 0 295.406233-31.187684 257.642833 257.642833 0 0 0 29.058404-31.563439 278.184119 278.184119 0 0 0 27.743261-43.399728 268.978116 268.978116 0 0 0 29.434159-124.312354 250.065103 250.065103 0 0 0-1.06464-32.440201 279.561888 279.561888 0 0 0-6.51309-38.452285 243.614638 243.614638 0 0 0-9.644384-30.999806 262.339773 262.339773 0 0 0-42.02196-72.95914 274.551818 274.551818 0 0 0-31.312935-32.502827 265.345815 265.345815 0 0 0-36.385631-26.302866 259.145854 259.145854 0 0 0-83.605538-31.939194 257.768085 257.768085 0 0 0-44.652246-4.509063c-142.160727 2.317157-255.513554 121.682067-253.509526 266.473081h-0.125251zM398.897255 563.319709v-187.877613a36.69876 36.69876 0 0 0-6.888845-18.787761 38.577537 38.577537 0 0 0-20.854415-14.466576 36.69876 36.69876 0 0 0-12.838304-1.252517H41.741913a41.333075 41.333075 0 0 0-15.218086 4.008055 45.090627 45.090627 0 0 0-17.785748 15.092835 44.777498 44.777498 0 0 0-7.515104 22.169559v622.75166h180.675638c-47.595662-205.412857 63.064252-343.816032 216.936017-441.700268v0.062626zM123.468675 449.090121h162.576761a22.670565 22.670565 0 0 1 12.024167 3.444423 23.296824 23.296824 0 0 1 10.959528 23.609953 24.236212 24.236212 0 0 1-5.01007 11.460534 24.737219 24.737219 0 0 1-8.016112 6.325213 23.35945 23.35945 0 0 1-10.020139 2.317158H123.531301a23.296824 23.296824 0 0 1-23.171572-23.547328 23.046321 23.046321 0 0 1 7.515104-17.409992 24.42409 24.42409 0 0 1 10.020139-5.448451 23.547327 23.547327 0 0 1 5.636329-0.75151zM100.297103 552.986441a24.298838 24.298838 0 0 1 10.145391-19.664524 22.795817 22.795817 0 0 1 12.963555-3.882804h162.576761a22.607939 22.607939 0 0 1 11.961541 3.381797 24.048334 24.048334 0 0 1 9.519133 11.210031 23.735205 23.735205 0 0 1-21.480674 32.565453H123.468675a22.545314 22.545314 0 0 1-16.345352-6.888846 23.547327 23.547327 0 0 1-6.763594-16.721107H100.171851z" fill="#009482" p-id="19108"></path><path d="M820.870374 605.279043l-94.565065 206.790626-34.005848-89.742873c3.006042-17.535244 9.957513-34.256351 20.16553-48.597676 13.777692-34.569481 20.290782-48.409798-13.652439-69.138962a62.625871 62.625871 0 0 0-52.730984-4.195933 63.314756 63.314756 0 0 0-24.173586 15.781719 64.880402 64.880402 0 0 0-11.210031 15.656468c-13.715066 34.632107 20.228156 48.53505 20.228156 69.201588a1120.689961 1120.689961 0 0 1-20.228156 110.40941c-8.579744 36.448257 0 27.30488-34.005848-41.333075a1616.248478 1616.248478 0 0 1-67.134934-173.598914c-182.867543 64.00364-277.55786 187.689735-277.55786 368.052244 0 69.138962 833.362465 103.708442 853.653248-41.270449 20.040279-145.041517-237.101547-386.526876-264.656931-317.262663v-0.876762l-0.125252 0.125252z" fill="#009482" p-id="19109"></path></svg>