<?xml version="1.0" standalone="no"?><!DOCTYPE svg PUBLIC "-//W3C//DTD SVG 1.1//EN" "http://www.w3.org/Graphics/SVG/1.1/DTD/svg11.dtd"><svg t="1778837276733" class="icon" viewBox="0 0 1024 1024" version="1.1" xmlns="http://www.w3.org/2000/svg" p-id="6544" xmlns:xlink="http://www.w3.org/1999/xlink" width="200" height="200"><path d="M674.816 408.152276c-11.652414-109.356138-117.195034-195.019034-245.548138-195.019035-136.545103 0-246.678069 96.326621-246.678069 215.145931a207.448276 207.448276 0 0 0 100.175448 173.797518c6.850207 4.343172-22.598621 66.171586-15.254069 69.914482 7.309241 3.707586 22.104276-8.721655 37.85269-20.656551 15.783724-11.899586 30.68469-23.057655 37.252414-20.833104a281.282207 281.282207 0 0 0 86.863448 13.523862c14.936276 0 29.837241-1.165241 44.596966-3.460413 28.672 65.783172 103.529931 112.816552 191.311448 112.816551 23.163586 0 46.185931-3.354483 68.396138-10.028138 3.460414-1.024 16.878345 8.827586 30.402207 18.714483 13.523862 9.957517 27.436138 19.985655 30.79062 18.643862 10.663724-4.484414-19.773793-54.272-10.063448-60.098207 51.023448-31.426207 84.179862-82.167172 84.179862-139.652414-0.141241-93.113379-86.157241-168.430345-194.277517-172.808827z m-84.674207 129.730207a21.715862 21.715862 0 1 1-0.494345-43.431724 21.715862 21.715862 0 0 1 0.494345 43.431724zM461.576828 580.360828c0 6.285241 0.353103 12.605793 1.129931 18.855724a244.171034 244.171034 0 0 1-33.297656 2.224551 234.354759 234.354759 0 0 1-80.154482-13.771034c-2.507034-0.882759-11.193379-3.601655-15.889655 0-9.004138 7.556414-17.302069 15.889655-24.858483 24.823172 3.707586-9.533793 6.002759-19.597241 6.956138-29.801931 0.882759-7.944828-11.29931-13.629793-13.771035-15.254069a170.690207 170.690207 0 0 1-76.093793-138.416551c0-95.337931 91.241931-172.561655 203.81131-172.561656 105.048276 0 191.558621 67.301517 202.469518 153.811863-96.573793 13.523862-170.301793 84.532966-170.301793 170.089931z m257.341793-42.478345a21.715862 21.715862 0 1 1 21.468689-21.715862 21.46869 21.46869 0 0 1-21.468689 21.715862z" fill="#8DC81B" p-id="6545"></path><path d="M515.177931 321.394759a32.520828 32.520828 0 1 0-0.741517 65.041655 32.520828 32.520828 0 0 0 0.706207-65.041655z m-171.678897 0a32.520828 32.520828 0 1 0 32.273656 32.520827 32.273655 32.273655 0 0 0-32.273656-32.520827z" fill="#8DC81B" p-id="6546"></path></svg>